<?xml version="1.0" encoding="UTF-8"?>
<svg id="_レイヤー_2" data-name="レイヤー 2" xmlns="http://www.w3.org/2000/svg" xmlns:xlink="http://www.w3.org/1999/xlink" viewBox="0 0 989.72 570.41">
  <defs>
    <style>
      .cls-1 {
        fill: url(#_名称未設定グラデーション_100);
      }

      .cls-2 {
        fill: #e8382f;
      }
    </style>
    <radialGradient id="_名称未設定グラデーション_100" data-name="名称未設定グラデーション 100" cx="172.07" cy="84.54" fx="172.07" fy="84.54" r="77.18" gradientTransform="translate(95.28 2.4) rotate(33.53)" gradientUnits="userSpaceOnUse">
      <stop offset="0" stop-color="#f7ffaa"/>
      <stop offset=".23" stop-color="#f1f07a"/>
      <stop offset=".47" stop-color="#ede24f"/>
      <stop offset=".69" stop-color="#e9d92f"/>
      <stop offset=".87" stop-color="#e7d31c"/>
      <stop offset="1" stop-color="#e7d116"/>
    </radialGradient>
  </defs>
  <g id="body2">
    <path class="cls-2" d="m591.26.06s352.62,84.94,352.62,84.94c2.39.58,4.06,2.6,4.31,4.91,0,0,41.47,338.47,41.47,338.47.54,4.38-2.58,8.37-6.96,8.91-1.84.22-3.59-.19-5.07-1.07,0,0-641.24-371.26-641.24-371.26,0,0,19.29-9.32,19.29-9.32l-8.06,102.08c-.67,8.49-7.24,15.11-15.37,16.14,0,0-.7.09-.7.09,0,0-132.83,16.93-132.83,16.93,0,0,12.29-9.29,12.29-9.29,0,0-149.84,369.04-149.84,369.04-17.12,38.14-73.13,16.17-58.86-23.9.63-1.94,178.41-356.31,179.35-358.42,2.42-5.04,7.16-8.38,12.29-9.29,0,0,131.95-22.82,131.95-22.82,0,0-16.07,16.22-16.07,16.22,0,0,20.34-100.36,20.34-100.36,1.17-8.97,11.54-14.08,19.29-9.32,0,0,636.31,379.65,636.31,379.65,0,0-12.03,7.84-12.03,7.84,0,0-36.95-339-36.95-339,0,0,4.31,4.91,4.31,4.91,0,0-350.95-91.58-350.95-91.58-2.91-.8-1.85-5.15,1.13-4.5h0Z"/>
    <path class="cls-1" d="m223.51,247.48l-34.7-31.57c-1.13-1.03-2.69-1.43-4.17-1.08l-45.68,10.69c-3.74.87-6.85-2.92-5.28-6.41l19.3-42.76c.63-1.39.53-3-.26-4.3l-24.28-40.14c-1.99-3.28.65-7.42,4.47-7l46.63,5.14c1.51.17,3.01-.42,4.01-1.58l30.67-35.5c2.51-2.9,7.26-1.67,8.04,2.09l9.52,45.94c.31,1.49,1.33,2.74,2.74,3.33l43.24,18.2c3.54,1.49,3.83,6.39.5,8.29l-40.75,23.25c-1.32.76-2.19,2.11-2.32,3.63l-3.95,46.75c-.32,3.82-4.89,5.62-7.73,3.04Z"/>
  </g>
</svg>