<?xml version="1.0" encoding="UTF-8"?>
<svg id="_レイヤー_2" data-name="レイヤー 2" xmlns="http://www.w3.org/2000/svg" viewBox="0 0 231.76 316.78">
  <defs>
    <style>
      .cls-1, .cls-2, .cls-3, .cls-4, .cls-5, .cls-6, .cls-7, .cls-8, .cls-9, .cls-10, .cls-11, .cls-12 {
        stroke-linecap: round;
        stroke-linejoin: round;
      }

      .cls-1, .cls-2, .cls-4, .cls-5, .cls-6, .cls-7, .cls-8, .cls-9, .cls-10, .cls-11, .cls-12 {
        stroke: #231815;
      }

      .cls-1, .cls-3 {
        stroke-width: 1.17px;
      }

      .cls-1, .cls-8, .cls-9 {
        fill: #a6b3bb;
      }

      .cls-2 {
        fill: #f6d0ba;
      }

      .cls-2, .cls-4, .cls-5, .cls-7, .cls-9, .cls-10, .cls-11, .cls-12 {
        stroke-width: 3.44px;
      }

      .cls-13 {
        fill: #231815;
      }

      .cls-3 {
        fill: none;
        stroke: #fff;
      }

      .cls-4, .cls-6, .cls-14 {
        fill: #fff;
      }

      .cls-5 {
        fill: #e51f1f;
      }

      .cls-6, .cls-8 {
        stroke-width: 4.3px;
      }

      .cls-7 {
        fill: #ef9a75;
      }

      .cls-10 {
        fill: #005078;
      }

      .cls-11 {
        fill: #4e381d;
      }

      .cls-12 {
        fill: #feed00;
      }
    </style>
  </defs>
  <g id="_レイヤー_1-2" data-name="レイヤー 1">
    <g>
      <g>
        <path class="cls-9" d="M159.22,207.09c5.96,21.47,5.09,52.72,12.07,73.91,1.85,5.67-13.82,34.21-33.38,31.17-16.04-2.5-5.07-25.35-7.12-30.46-2.96-7.37-11.55-17.63-18.64-41.35-3.47-11.69-.39-15.2-10.56-17.21-7-1.37-4.15,6.19-10.42,2.75-3.73,17.69-9.33,27.58-17.14,42.92-3.06,6.04-7.06,11.81-12.95,14.12-2.75,1.11-22.74,9.25-24.35,7.85-11.48-9.99-1.81-20.15.49-23.82,4.18-6.67,5.27-16.45,7.42-24.54,4.55-17.01,8.52-35.36,14.32-51.55,6.99,7.31,14.98,6.82,23.68,8.51,11.69,2.28,21.41,4.97,33.34,4.76,13.68-.23,28.71,1.16,41.59-2.59"/>
        <path class="cls-10" d="M148.17,198.95c4.87,20,8.81,24.32,13.04,44.24-11.13,2.16-25.85,13.94-36.58,8.99,3.58-21.26,1.56-34.03-1.14-55.78-3.47.43-7.12,1.21-10.78,1.01,2.82,8.86-5.32,21.42-8.09,29.72-3.2,9.73-4.37,20.06-8.4,29.09-12.56-8.05-28.32,1.15-21.11-19.54,4.55-13.09,10.52-26.59,13.57-39.62-5.09-1.62-10.64-2.67-14.94-5.88-3.73,15.69-15.12,37.54-26.59,48.46-5.51-7.56-11.11-9-13.52-18.29,10.7-15.85,21.9-22.84,31.54-39.4,17.62,11,37.05,12.91,57.01,13.5,11.64.36,23.93,3.18,34.26-.38.55,7.79,4.58-1.98,1.98,6.68-2.3.52-9.39,4.64-6.37,3.41"/>
        <path class="cls-10" d="M162.18,192.21c4.99,10.95,15.51,16.1,23.07,25.54-6.1,11.72-12.45,21.58-24.04,25.45-4.62-14.77-16.91-33.01-17.94-48.7-6.21,2.95-12.34.1-18.38.53,6.27,19.28,6.03,39.23,4.49,58.91-10.33-1.03-22.91,4.89-32.05-.36,7.81-16.02,5-38.78,11.86-54.95-4.49.56-9.32.02-13.58-1.24-6.66,18.7-15.72,33.58-22.84,51.98-7.8-8.24-21.55-4.72-28.4-13.11,6.91-7.11,11.73-20.65,16.34-29.64,3.21-6.27,6.43.93,8.99-5.38-1.04-.95-4.63-3.26-5.93-3.73-.11,6.18-10.82,2.4-14.37,8.02-4.02,6.34-11.82,9.38-15.74,15.83-4.44-6.1-4.86-8.75-8.64-15.36,10.42-10.48,17.75-8.59,26.86-20.08,29.8,15.19,69.66,18.15,102.98,16.62"/>
        <path class="cls-9" d="M201.67,170.48c7.45,2.43,22.36-3.96,26.66,3.02,7.22,11.68-10.4,13.62-14.98,17.36-6.43,5.22-6.78,16.89-17.11,3.86-6.35-8.02-5.64-18.21,1.65-25.09"/>
        <path class="cls-9" d="M19.14,93.75c-4.36-3.48-7.21-8.91-12.41-10.81-7.5,6.52-4.56,17.06-.69,23.75-2.4,2.02-3.69,4.95-4.32,7.56,5.11,4.04,11.09-.52,16.64,2.54,1.81-3.66,1.59-9.05.02-12.84"/>
        <path class="cls-4" d="M25.55,96.75c-5.66,3.97-6.88,15.48-9,21.93-11.39-1.4-8.69-23.81,2.59-24.94.91.9,5.55,2.24,6.41,3Z"/>
        <path class="cls-6" d="M168.8,193.02l3.91,9.21c-20.31,22.59-49.67,19.4-59.92,20.51-20.68,2.22-33.18-5.81-51.06-11.14-4.73-1.41-20.04-14.48-20.04-14.48.89-15.16,3.24-13.23,8.85-37.37-6.5-4.73-33.68-35.38-33.68-35.38-4.84-7.34-3.26-24.03,9.86-27.98.92-1.41,57.06,21.65,74.89,24.64,8.68,1.46,14.77,2.34,22.7,5.88,5.54,2.47,11.77,6.01,17.98,5.42"/>
        <path class="cls-4" d="M147.65,135.02c18.76-.81,50.87,27.32,57.43,31.43,4.85,7.33-3.73,2.84-7.34,11.24-3.79,8.8-2.95,19.98-9.1,18.7-4.44.61-39.73-8.23-39.7-7.64"/>
        <path class="cls-1" d="M106.74,146.87c8.6,1.97,16.78-9.83,15.57-17.89-2.65-18.07-31.15-21.56-44.25-13.89-10.89,6.37-11.04,20.22-1.16,28.24,6.68,5.43,19.56,7.82,27.97,8.09.14-.91-.11-1.78.02-2.66"/>
        <path class="cls-5" d="M84.8,171.12c-4.01,12.94-5.66,20.05-16.3,28.7-1.22-14.34,1.43-27.34,16.22-33.57"/>
        <path class="cls-5" d="M121.93,153.08c-6.66,2.88-8.58,12.12-16.71,14.76-4.69,1.53-13.57,1.91-18.19.57-.17.22-.38.4-.61.53,3.62,4.49,7.84,13.68,5.09,19.27-2.3,4.66-10.36,11.77-13.93,16.2-1.94-5.62-6.68-12.87-5.11-19.2,1.22-4.86,8.47-9.37,8.09-14.72-.4-5.84-9.91-10.79-11.48-16.98-1.29-5.21,2.27-9.92,2.55-15.48,6.46,6.4,14.4,18.27,24.21,18.83,9.16.52,16.77-6.62,26.02-5.86"/>
        <path class="cls-10" d="M85.68,166.38c-.91-10.96-4.28-13.86-2.57-24.66,7.19,3.93,17.79,5.21,25.46,2.33,0,0-11.14,13.72-22.9,22.33Z"/>
        <path class="cls-10" d="M53.32,103.48c8.43-.82,17.63,1.53,26.59,4.29-5.57,18.36,7.28,37.04,4.9,55.16,8.67-7.62,17.31-14.81,26.54-21.51,5.55-4.01,8.18-5.71,14.91-6.93,7.42-1.35,18.46-1.22,23.64-6.75h0c7.55,1.56,17.8,7.06,24.32,13.16-15.59,10.39-30.73,5.84-48.54,10.27-12.8,3.18-25.21,13.41-40.93,17.31-8.39-12.33-14.96-25.8-24.45-37.52-7.94-9.84-6.79-14.51-6.97-27.48Z"/>
        <path class="cls-3" d="M162.19,139.4s-11.45,4.5-19.59,3.93c-19.42.35-33.14,6.77-57.55,21.87-4.67-11.7-12.7-25.62-20.07-36.47-3.27-4.81-6.25-6.83-6.59-13.43"/>
        <g>
          <path class="cls-8" d="M180.52,56.62c15.42-7.22,16.97-25.78,2.69-35.25-21.13-14-35.19-.27-36.54,11.76-11.43-5.36-21.32-6.58-41.14-7.61,2.69-8.39,2.48-23.68-15.95-23.36-19.77.35-23.18,15.47-16.48,26.71,0,0-50.2,38.41-22.84,80.86,15.03,23.33,75.73,33.56,96.82,27.62,64.15-18.04,33.44-80.73,33.44-80.73Z"/>
          <path class="cls-4" d="M164.59,69.45c-10.29-3.11-41.41-3.98-48.03,2.62,0,0-1.17,31.09,19.64,32.03,36.73,1.64,28.39-34.65,28.39-34.65Z"/>
          <path class="cls-4" d="M93.44,67.9c-7.93-9.27-17.86-12.57-30.06-17.41-5.31,9.62-16.86,30.37,2.46,38.59,18.88,8.01,27.6-21.18,27.6-21.18Z"/>
          <path class="cls-12" d="M127.64,49.7c-21.81,21.01-33.48-2.02-21.12-15.67,4.25,20.59,21.12,15.67,21.12,15.67Z"/>
          <path class="cls-2" d="M109.85,108.83c-1.96,7.13-.64,21.71-12.9,16.66-7.95-3.27-6.02-13.48-7.89-20.01"/>
          <path class="cls-9" d="M111.67,106.02c1.09,12.37-13.73,7.81-17.18.45-4.9,7.55-12.04.43-9.29-6.48"/>
          <path class="cls-13" d="M86.39,60.12c3.56,8.94-6.02,32.29-12.48,17.03-3.94-9.32,1.72-26.34,12-17"/>
          <path class="cls-13" d="M153.84,67.94c4.47,11.15-6.35,38.37-16.19,19.91-3.46-6.54-.96-15.68.92-19.07,2.13-3.84,9.55-3.71,15.27-.84"/>
          <path class="cls-13" d="M91.88,96.26c.18,5.95,8.18,10.31,11.39,3.41,0,0-7.64-3.18-11.39-3.41Z"/>
        </g>
        <path class="cls-4" d="M210.81,170.98c-2.85-.88-5.78-3.76-10.46-5.37-14.13.25-23.14,29.93-3.24,30.63-.39-28.66,13.7-25.25,13.7-25.25Z"/>
        <path class="cls-10" d="M166.06,251.45c-.88,10.04,2.98,16.33,5.14,25.88,1.57,6.89-4.59,15.02-8.92,21.06-4.23,5.95-10.2,12.2-17.77,13.22-4.21.57-8.91,1.3-11.8-1.67-3.48-3.56-4.08-8.93-3.05-13.38,1.35-6.14,3.71-9.24,1.14-14.85-2.35-5.11-7.98-13.09-9.75-18.36,9.98,6.8,40.77-.8,45.02-11.9h0Z"/>
        <path class="cls-10" d="M80.86,254.8c-3.54.04-6.52,1.34-10.17,1.1-4.9-.31-9.41-1.63-13.83-3.71-4.31-2.01-8.82-4.61-11.52-8.62-4.79,7.42-4.7,16.9-9.82,24.08-3.89,5.47-7.84,13.09-4.04,20.02,4.3,7.79,16.3,2.92,22.29.17,6.29-2.9,16.24-5.08,19.56-11.1,2.98-5.37,4.41-12.04,6.18-17.74l1.35-4.19Z"/>
        <path class="cls-11" d="M169.71,271.77c.54,4.43,3.82,9.04,2.24,13.49-1.19,3.38-3.21,6.65-5,9.83-3.73,6.6-7.69,11.6-14.46,15.8-5.91,3.65-17.16,7.18-22,.05-4.48-6.55-2.04-15.48.04-22.19,6.93-2.51,17.25-2.07,22.6,4,11.2-6.06,16.59-20.98,16.59-20.98Z"/>
        <path class="cls-11" d="M76.87,269.24c-.71,12.97-8.82,13.83-17.12,16.96-6.84,2.58-14.85,7.41-22.53,5.52-12.29-3.03-14.59-9.85-5.08-20.78,7.38-8.48,25.54,5.57,25.54,5.57,4.24.39,19.18-7.27,19.18-7.27Z"/>
        <path class="cls-5" d="M74.92,171.62c2.22-14.28,13.04-4.84,17.5-3.34.09,2.3-.32,4.65-1.19,6.89,0,0-17.09,1.51-16.31-3.54Z"/>
        <path class="cls-11" d="M153.44,294.67c-.44-3.74,1.48-6.78.32-10.48-6.42.55-15.07.89-21.32-.27.4,4.23-.06,4.56-.44,8.78"/>
        <path class="cls-11" d="M56.2,277.67c2.15-1.49,3.73-3.46,4.59-5.82-3.05-2.8-12.21-6.81-16.11-7.59-6-1.2-6.61,2.31-10.01,7.36"/>
        <polygon class="cls-12" points="174.49 31.23 171.29 43.24 159.4 47.44 170.01 54.16 170.38 66.58 180.18 58.72 192.3 62.19 187.73 50.62 194.84 40.35 182.24 41.05 174.49 31.23"/>
        <polygon class="cls-7" points="192.87 49.55 188.16 55.18 180.76 54.56 184.75 60.71 181.85 67.45 189.03 65.61 194.64 70.38 195.09 63.11 201.46 59.34 194.55 56.66 192.87 49.55"/>
      </g>
      <path class="cls-14" d="M137.33,72.17c.49-.23,3.47-.88,3.5.68.03,1.56-1.84,4.73-3.29,4.27-1.46-.46-3.03-1.13-2.34-2.42.69-1.28,1.41-2.2,2.12-2.53Z"/>
      <path class="cls-14" d="M74.46,60.25c.41-.19,2.92-.75,2.95.57.03,1.31-1.56,3.98-2.78,3.6-1.22-.38-2.55-.96-1.95-2.04.59-1.08,1.18-1.86,1.79-2.13Z"/>
    </g>
  </g>
</svg>