<?xml version="1.0" encoding="UTF-8"?>
<svg id="_レイヤー_2" data-name="レイヤー 2" xmlns="http://www.w3.org/2000/svg" viewBox="0 0 253.05 385.01">
  <defs>
    <style>
      .cls-1 {
        fill: #fff;
      }

      .cls-1, .cls-2, .cls-3, .cls-4, .cls-5 {
        stroke: #231815;
        stroke-width: 4.8px;
      }

      .cls-6 {
        fill: #231815;
      }

      .cls-2 {
        fill: #e51f1f;
      }

      .cls-2, .cls-3, .cls-4, .cls-5 {
        stroke-linecap: round;
        stroke-linejoin: round;
      }

      .cls-3 {
        fill: none;
      }

      .cls-4 {
        fill: #ffec00;
      }

      .cls-5 {
        fill: #b3b6bb;
      }
    </style>
  </defs>
  <g id="_レイヤー_1-2" data-name="レイヤー 1">
    <g>
      <path class="cls-5" d="M74.48,173.39c-5.56,23.4-9.09,134.79-10.3,157.88-.42,8.05-13.59,8.84-19.09,11-11.12,4.39-15.89,19-4.77,25.59,15.11,8.94,51.57,15.79,66.73,14.62,9.81-.75,37.34-1.46,42.91-5.84,0,0,1.88-49.84.79-43.13l-.79,43.13c33.36,5.84,57.27-1.89,57.2-7.32-.79-54.82-7.94-122.82-25.42-201.78"/>
      <g>
        <path class="cls-5" d="M34.77,48.38C16.99,32.96,18.88,9.01,49.07,3.05c22.24-4.39,36.55,14.14,32.57,32.9,17.48-2.92,38.13-2.19,63.56-1.46C142.02.86,188.62-1,207.95,10.36c20.75,12.19,21.69,38.76,11.12,54.1,20.66,27.79,22.25,62.88,0,84.81-21.48,21.18-69.48,26.24-103.27,26.32-59.18.14-125.29-15.08-111.57-84.82,3.4-17.29,11.47-29.23,30.54-42.39Z"/>
        <path class="cls-1" d="M196.84,80.55s9.53,43.87-31.79,52.64c-32.85,6.98-50.84-17.55-58.77-35.07,4.75-2.95,74.66-14.65,90.55-17.57Z"/>
        <path class="cls-1" d="M71.31,95.17s-7.95,33.63-36.54,20.47c-12.04-5.54-13.7-41.24-3.2-48.24,1.34-.69,23.85,16.07,39.74,27.77Z"/>
        <path class="cls-3" d="M67.34,134.65c-.23,5.5,4.82,17.71,17.48,2.93,2.57,2.91,15.09,18.27,21.45,3.65"/>
        <path class="cls-4" d="M86.41,57.16c8.74,33.62,49.25,11.69,34.95-9.51-14.42,19.42-34.95,9.51-34.95,9.51Z"/>
        <path class="cls-6" d="M53.29,82.01c0,7.87-1.43,17.53,1.18,24.79,9.64,4.33,8.36-9.23,10.77-14.48-5.17-1.32-8.48-5.95-11.95-9.39"/>
        <path class="cls-6" d="M157.91,87.97c3.8,11.07,1.41,28.45,11.11,32.05,10.95-2.14,10.29-25.97,9.41-35.71-6.54,1.48-12.86,3.16-19.48,4.62"/>
        <path class="cls-3" d="M80.84,125.5c2.27.94,4.7,1.31,7.14,1.1"/>
      </g>
      <g>
        <path class="cls-2" d="M142.81,188.67c-1.18,5.79-3.66,11.16-4.93,16.89-14.14-19.22-36.26-16.94-45.92-14.59-6.35,1.55-14.4,8.83-14.29,34.69.05,13.11,9.44,27.71,20.65,34.77,11.96,7.52,24.63,6.94,37.84,9.39-1.14,5.73-.41,11.9-2.25,17.58-6.38-.55-12.18-1.67-18.46-3.61-16.66-5.13-29.39-9.99-39.21-24.91-9.71-14.73-13.04-33.49-11.1-50.97,2.1-18.92,10.15-26.97,27.63-31.6,15.5-4.1,41.32,1.54,50.05,12.35h0Z"/>
        <polyline class="cls-2" points="131.69 193.13 129.31 289.63 177.77 299.13 226.23 291.83 228.61 196.06 186.5 180.7 145.19 178.51"/>
        <polyline class="cls-3" points="132.48 236.99 184.11 241.38 191.27 250.88 185.71 254.54 131.69 248.69"/>
        <path class="cls-2" d="M220.66,175.59c11.92,1.46,28.61,16.08,29.39,35.09.95,22.66.8,49.71-.79,80.41-.28,5.43-42.11,11.7-65.95,8.78,1.6-26.32,1.29-58.16,0-84.81-1.58-32.9-42.1-43.14-51.63-21.93,0,0-15.26-30.36,88.98-17.55Z"/>
        <polyline class="cls-3" points="146.78 252.35 145.98 292.56 160.29 295.49 160.29 253.07"/>
      </g>
      <path class="cls-5" d="M116.11,185.27c11.47,3.96,13.99,14.8,11.12,24.68-4.64,15.94-15.06,27.66-27.83,38.74-10.33,8.98-22.37,19.07-37.36,16.08-24.2-4.83-21.34-26.23-19.82-37.28,1.13-8.12,4.39-16.62,6.05-21.2,7.15-19.74,10.33-24.86,23.04-21.93-5.59,11.61-5.83,29.68-6.05,29.97,3.97-5.11,14.38-15.42,17.48-18.27,7.95-7.32,22.25-14.63,33.38-10.78Z"/>
    </g>
  </g>
</svg>