<?xml version="1.0" encoding="UTF-8"?>
<svg id="_レイヤー_2" data-name="レイヤー 2" xmlns="http://www.w3.org/2000/svg" viewBox="0 0 336.3 388.13">
  <defs>
    <style>
      .cls-1 {
        fill: #d7001d;
      }

      .cls-2, .cls-3, .cls-4 {
        fill: #004098;
      }

      .cls-2, .cls-3, .cls-4, .cls-5, .cls-6, .cls-7, .cls-8, .cls-9, .cls-10, .cls-11, .cls-12 {
        stroke: #231815;
      }

      .cls-2, .cls-3, .cls-4, .cls-5, .cls-7, .cls-8, .cls-9, .cls-10, .cls-11, .cls-12 {
        stroke-linecap: round;
        stroke-linejoin: round;
      }

      .cls-2, .cls-7, .cls-9, .cls-11 {
        stroke-width: 4.8px;
      }

      .cls-3, .cls-5 {
        stroke-width: 6px;
      }

      .cls-4, .cls-6, .cls-8, .cls-10, .cls-12 {
        stroke-width: 6.78px;
      }

      .cls-5 {
        fill: #b0b9bf;
      }

      .cls-6 {
        fill: #c69700;
      }

      .cls-13 {
        fill: #231815;
      }

      .cls-14 {
        fill: #fadce2;
      }

      .cls-7, .cls-8, .cls-15 {
        fill: #fff;
      }

      .cls-9, .cls-10 {
        fill: none;
      }

      .cls-16 {
        fill: #0b318f;
      }

      .cls-11, .cls-12 {
        fill: #fff100;
      }
    </style>
  </defs>
  <g id="_レイヤー_1-2" data-name="レイヤー 1">
    <g>
      <g>
        <g>
          <path class="cls-5" d="M68.41,123.22c-9.56-16.07-42.43-27.53-58.92-13.23-20.17,17.49,12.09,40.27,22.74,53.99,11.21-6.22,21.36-19.32,30.5-28.08,3.77-3.62,13.48-9.1,6.48-13.38"/>
          <path class="cls-5" d="M267.9,123.35c9.55-16.08,42.42-27.53,58.9-13.24,20.17,17.5-12.08,40.27-22.73,53.99-11.21-6.22-21.38-19.32-30.5-28.09-3.78-3.62-13.48-9.1-6.49-13.38"/>
          <polygon class="cls-2" points="82.59 261.17 84.98 342.81 250.51 342.81 252.11 261.17 82.59 261.17"/>
          <line class="cls-10" x1="167.74" y1="296.35" x2="167.74" y2="341.4"/>
          <path class="cls-3" d="M167.73,276.65c-48.37.53-93.67-7.04-93.67-7.04l5.65-42.93-56.52-66.15,45.22-40.12,44.81,40.82,9.15,4.91,46.17,5.64"/>
          <path class="cls-3" d="M167.73,276.65c48.37.53,94.51-6.9,94.51-6.9l-5.66-42.93,56.54-66.16-45.22-40.12-46.83,41.75-6.47,5.4-46.84,4.23"/>
          <path class="cls-4" d="M110.85,164.04l-2.79,10.2s54.65,24.4,124.15,1.76l-3.18-11.61-118.18-.36Z"/>
          <line class="cls-10" x1="167.74" y1="173.89" x2="167.74" y2="185.51"/>
        </g>
        <g>
          <path class="cls-8" d="M167.38,341.34v35.98c19.14,12.47,89.15,7.13,96.91-2.57,1.92-2.4,2.82-19.17-15.91-33.06l-81-.34Z"/>
          <path class="cls-6" d="M167.28,370.74v6.74c19.07,12.43,88.86,7.1,96.6-2.56.58-.72,1.06-2.75.95-5.6-53.53,11.35-97.54,1.34-97.54,1.41Z"/>
          <path class="cls-8" d="M235.25,345.16c3.01-5.7,2.86-13.37,2.64-19.28-4.85-2.69-37.05-2.06-44.47-.76-4.44.78.31,21.91.31,21.91"/>
          <path class="cls-8" d="M216.93,342.48c6.22-2.69,13.52-4.32,20.77-3.68,5.38.48,4.62,3.78,2.52,7.44-2.32,4.03-5.16,2.58-9.94,1.85-4.24-.65-8.18-1.23-11.8-2.65-5.45-2.93-13.69-4.62-20.18-5.37-1.67-.18-6.4-.98-7.8-.32-2.07.97-1.55,4.12-1.36,6.02.59,5.88,4.94,3.82,10.95,2.86,4.72-.76,9.77-1.77,13.78-3.74"/>
          <path class="cls-8" d="M216.32,347.83c5.48-.39,1.65-8.15-3.44-5.62-6.45,3.21,4.64,9.37,6.19,3.74"/>
          <line class="cls-10" x1="230.06" y1="351.3" x2="201.06" y2="352.12"/>
          <line class="cls-10" x1="232.65" y1="356.25" x2="199.84" y2="357.05"/>
          <path class="cls-10" d="M224.26,347.83c1.48.59,3.95,5.65,4.23,7.35.37,2.19-.28,3.54-2.31,4.61-3.78,1.97-9.77,1.89-13.83,1.93-5.09.05-6.93-1.33-7.32-5.88-.22-2.46,0-6.14,0-8.01"/>
          <path class="cls-16" d="M251.43,347.21c-1.43,3.75-4.28,5.16-7.3,7.38,0,0,5.26,3.84,4.65,3.84.61,0,5.38-1.23,9.16-3.75-1.01-2.13-5.49-6.77-6.51-7.47Z"/>
          <path class="cls-16" d="M169.82,347.02c3.05,3.21,9.57,7.49,14.03,10.14,0,0-5.26,3.85-4.65,3.85-.61,0-5.81-1.13-9.58-3.65l.2-10.34Z"/>
        </g>
        <g>
          <path class="cls-8" d="M166.74,340.88v35.97c-19.13,12.47-89.14,7.13-96.9-2.56-1.93-2.41-2.82-19.17,15.9-33.07l81-.35Z"/>
          <path class="cls-6" d="M166.84,370.29v6.74c-19.07,12.44-88.86,7.11-96.6-2.56-.58-.72-1.07-2.74-.95-5.59,53.52,11.37,97.55,1.36,97.55,1.41Z"/>
          <path class="cls-8" d="M98.86,344.7c-3.01-5.69-2.86-13.36-2.64-19.27,4.84-2.68,37.04-2.05,44.46-.76,4.44.77-.3,21.91-.3,21.91"/>
          <path class="cls-8" d="M117.19,342.03c-6.22-2.7-13.52-4.32-20.77-3.68-5.38.49-4.62,3.79-2.52,7.44,2.32,4.03,5.15,2.58,9.94,1.86,4.23-.66,8.18-1.23,11.79-2.66,5.46-2.93,13.69-4.64,20.18-5.37,1.66-.19,6.39-.99,7.79-.32,2.07.97,1.56,4.12,1.37,6.01-.59,5.89-4.94,3.84-10.96,2.88-4.71-.75-9.76-1.76-13.78-3.74"/>
          <path class="cls-8" d="M117.8,347.38c-5.48-.38-1.65-8.15,3.43-5.62,6.46,3.21-4.64,9.37-6.18,3.74"/>
          <line class="cls-10" x1="104.06" y1="350.85" x2="133.06" y2="351.65"/>
          <line class="cls-10" x1="101.47" y1="355.81" x2="134.28" y2="356.6"/>
          <path class="cls-10" d="M109.86,347.38c-1.48.58-3.95,5.65-4.22,7.34-.38,2.2.27,3.55,2.31,4.61,3.78,1.97,9.77,1.91,13.82,1.94,5.09.04,6.92-1.34,7.33-5.89.21-2.46,0-6.14,0-8.01"/>
          <path class="cls-16" d="M82.69,346.76c1.42,3.75,4.27,5.17,7.3,7.38,0,0-5.26,3.84-4.65,3.84-.61,0-5.39-1.21-9.16-3.73,1.02-2.15,5.5-6.78,6.51-7.49Z"/>
          <path class="cls-16" d="M164.3,346.57c-3.05,3.21-9.56,7.49-14.03,10.14,0,0,5.26,3.85,4.65,3.85.61,0,5.81-1.13,9.58-3.65l-.2-10.34Z"/>
        </g>
        <g>
          <path class="cls-12" d="M175.71,198.93c0,4.11-3.48,7.42-7.76,7.42s-7.76-3.32-7.76-7.42,3.48-7.44,7.76-7.44,7.76,3.32,7.76,7.44Z"/>
          <path class="cls-12" d="M175.51,225.99c0,4.1-3.48,7.42-7.77,7.42s-7.76-3.32-7.76-7.42,3.48-7.44,7.76-7.44,7.77,3.32,7.77,7.44Z"/>
          <path class="cls-12" d="M175.51,254.48c0,4.09-3.48,7.43-7.77,7.43s-7.76-3.33-7.76-7.43,3.48-7.43,7.76-7.43,7.77,3.31,7.77,7.43Z"/>
        </g>
        <g>
          <path class="cls-9" d="M186.32,141.34c-1.7,8.4-5.58,16.15-16.06,17.84-11.17,1.82-19.46-9.2-18.77-18.56"/>
          <path class="cls-5" d="M201.42,38.98c-1.64-13.22,6.12-27.93,17.26-32.39,13.31-5.33,41.39-2.24,46.96,17.1,3.27,11.35.8,22.31-7.03,29.99,21.15,13.57,38.07,62.97,10.22,88.26-32.39,29.39-58.89,31.96-104.26,31.96-29.44,0-75.96-13.09-93.91-37.17-9.85-13.22-22.28-51.31,14.4-84.77-15.54-13.24-18.51-30.34-.16-43.47,21.84-15.61,59.25,4.63,48.04,29.93,36.4-7.28,68.63,1.76,68.49.58Z"/>
          <path class="cls-11" d="M147.85,58.43c18.13,11.73,29.4.56,33.48-12.04,9.27,11.4,8.04,30.26-12.56,31.58-20.22,1.31-20.92-19.54-20.92-19.54Z"/>
          <path class="cls-7" d="M81.86,76.09c-17.38,58.4,70.36,52.06,70.58,17.61-14.12-9.54-53.94-18.32-70.58-17.61Z"/>
          <path class="cls-13" d="M109.7,79.42c-1.65,6.04-.93,44.7,12.22,39.31,8.72-3.58,6.55-26.4,6.06-33.6-5.96-1.51-11.05-4.99-16.45-7.26"/>
          <path class="cls-7" d="M255.12,78.2c17.38,58.39-70.36,52.06-70.58,17.59,14.11-9.54,53.94-18.32,70.58-17.59Z"/>
          <path class="cls-13" d="M227.3,81.52c1.65,6.04.92,44.72-12.22,39.31-8.73-3.58-6.55-26.4-6.07-33.6,5.95-1.5,11.04-4.99,16.46-7.25"/>
          <path class="cls-14" d="M186.11,141.89c-1.71,8.4-5.58,16.15-16.06,17.84-11.17,1.82-19.46-9.19-18.78-18.56l14.67-10.27,20.17,10.99Z"/>
          <path class="cls-1" d="M151.5,140.62c-.69,9.37,7.6,20.38,18.77,18.56,10.48-1.7,14.35-9.45,16.06-17.84,0,0-11.04-2.15-14.42-4.69-3.39-2.55-5.05-4.39-5.05-4.39,0,0-3.44,4.43-6.87,5.31-3.43.88-8.49,3.05-8.49,3.05Z"/>
          <path class="cls-9" d="M186.32,141.34c-1.7,8.4-5.58,16.15-16.06,17.84-11.17,1.82-19.46-9.2-18.77-18.56"/>
          <path class="cls-9" d="M144.26,127.52c-.28,15.46,13.65,14.51,21.67,3.39,5.71,9.64,24.43,13.07,27.87,1.69"/>
          <path class="cls-10" d="M163.57,121.82c1.92,1.33,6.57.52,6.57.52"/>
        </g>
      </g>
      <path class="cls-15" d="M124.69,89.63c.68-.92,7.89-3.71,8.68.2,2,9.87-7.24,6.93-8.49,6.1-2.59-1.71-.86-5.38-.19-6.3Z"/>
      <path class="cls-15" d="M224.95,88.63c.68-.92,7.89-3.71,8.68.2,2,9.87-7.24,6.93-8.49,6.1-2.59-1.71-.86-5.38-.19-6.3Z"/>
    </g>
  </g>
</svg>