<?xml version="1.0" encoding="UTF-8"?>
<svg id="_レイヤー_2" data-name="レイヤー 2" xmlns="http://www.w3.org/2000/svg" viewBox="0 0 520.47 479.55">
  <defs>
    <style>
      .cls-1 {
        stroke: #000;
      }

      .cls-1, .cls-2, .cls-3, .cls-4, .cls-5 {
        stroke-linecap: round;
        stroke-linejoin: round;
        stroke-width: 8.81px;
      }

      .cls-1, .cls-3 {
        fill: none;
      }

      .cls-6 {
        fill: #231815;
      }

      .cls-2 {
        fill: #fff;
      }

      .cls-2, .cls-3, .cls-4, .cls-5 {
        stroke: #231815;
      }

      .cls-4 {
        fill: #c8c9c9;
      }

      .cls-5 {
        fill: #fff100;
      }
    </style>
  </defs>
  <g id="_レイヤー_1-2" data-name="レイヤー 1">
    <g>
      <path class="cls-5" d="M468.46,452.72c4.97,15.61-3.28,25.36-18.33,21.64l-162.73-40.12c-15.05-3.72-39.79-4.29-54.96-1.28l-157.36,31.21c-15.18,3.01-23.61-7.31-18.74-22.92l19-60.88c4.88-15.62-1.25-36.52-13.6-46.44l-49.44-39.73c-12.36-9.93-9.93-19.68,5.41-21.68l113.71-14.78c15.32-1.99,34.83-14.85,43.36-28.57l70.2-113.02c8.52-13.72,22.5-13.71,31.09.02l70.64,113.13c8.59,13.74,28.14,26.6,43.48,28.61l112.49,14.64c15.34,2,17.89,11.84,5.66,21.88l-49.35,40.5c-12.23,10.03-18.16,31.02-13.18,46.63l22.66,71.17Z"/>
      <g>
        <path class="cls-4" d="M195.21,223.73c-11.23,38.95-39.31,55.42-46.33,94.37,0,0-7.02,53.92-7.02,53.92l233.09,5.99s1.41-49.41,1.41-49.43c0-9.36-6.83-18.36-9.83-26.96-4.78-13.69-30.9-49.43-33.71-73.4,0,0-137.47-4.95-137.61-4.49Z"/>
        <path class="cls-4" d="M154.5,298.62c-19.51,8.6-34.06-12.67-51.92-16.35-27.76-5.74-12.64,27.73-7.87,44.56,3.2,11.29,13.22,54.87,24.68,52.68,39.31-7.48,90.56-4.13,101.1-7.48"/>
        <path class="cls-4" d="M226.1,52.48c-10.45-94.49-122.55-29.73-70.68,24.57-25.35,24.09-43.92,103.06-2.72,136.64,53.19,43.36,143.54,42.82,208.5,12.57,31.54-14.68,65.17-69.33,12.98-143.56,40.93-86.7-83.62-101.61-82.19-28.6-18.45-5.5-65.69.23-65.89-1.62Z"/>
        <path class="cls-3" d="M236.87,202.04c3.47,16.01,19.56,10.93,22.93-1.78,8.42,16.8,25.25,12.81,23.4.82"/>
        <path class="cls-2" d="M156.88,110.68c-20.45,93.54,82.75,83.39,83.01,28.18-16.6-15.28-63.45-29.35-83.01-28.18Z"/>
        <path class="cls-5" d="M241.74,82.2c10.3,45.93,58.04,15.98,41.19-12.99-17,26.52-41.19,12.99-41.19,12.99Z"/>
        <path class="cls-2" d="M369.34,113.43c20.45,90.87-82.76,81.01-83.02,27.38,16.6-14.84,63.44-28.51,83.02-27.38Z"/>
        <path class="cls-6" d="M191.48,115.2c-1.58,10.7-3.2,61.48,11.18,59.38,6.41-4.06,6-21.36,7.74-24.99-.65-8.98,3.07-18.69-1-28.6"/>
        <path class="cls-6" d="M337.73,115.85c1.58,10.71,3.2,61.49-11.17,59.38-6.41-4.06-6.01-21.36-7.74-24.98.63-8.99-3.07-18.7.98-28.6"/>
        <path class="cls-4" d="M200.83,297.13c3.13,13.16,16.67,108.3,46.65,98.56,9.52-3.1,10.92-25.45,10.92-40.93v-60.19"/>
        <path class="cls-4" d="M315.97,297.13c-3.14,13.16-15.27,107.33-45.25,97.58-9.51-3.1-10.92-25.46-10.92-40.93v-60.19"/>
        <path class="cls-4" d="M366.53,301.62c19.49,8.61,37.42-12.44,55.28-16.14,27.75-5.73,12.64,27.73,7.87,44.56-3.21,11.29-13.22,54.87-24.68,52.68-39.32-7.48-94.64-6.21-107.28-6.21"/>
      </g>
    </g>
    <path class="cls-1" d="M253.23,183.57s5.37,2.7,11.28.44"/>
  </g>
</svg>