<?xml version="1.0" encoding="UTF-8"?>
<svg id="_レイヤー_2" data-name="レイヤー 2" xmlns="http://www.w3.org/2000/svg" viewBox="0 0 180.3 166.19">
  <defs>
    <style>
      .cls-1 {
        fill: #231815;
      }

      .cls-2 {
        fill: #fff;
      }

      .cls-2, .cls-3, .cls-4, .cls-5 {
        stroke: #231815;
        stroke-linecap: round;
        stroke-linejoin: round;
        stroke-width: 5.15px;
      }

      .cls-3 {
        fill: none;
      }

      .cls-6 {
        fill: #f8d9e1;
      }

      .cls-4 {
        fill: #ffec00;
      }

      .cls-5 {
        fill: #b3b6bb;
      }
    </style>
  </defs>
  <g id="_レイヤー_1-2" data-name="レイヤー 1">
    <g>
      <path class="cls-5" d="M113.34,36.47c-1.29-12.44,4.8-26.32,13.55-30.54,10.46-5.01,32.5-2.09,36.87,16.12,2.57,10.71.62,21.03-5.52,28.27,16.61,12.79,29.9,59.32,8.03,83.16-25.44,27.7-46.27,30.13-81.89,30.13-23.12,0-59.65-12.34-73.76-35.04-7.72-12.45-17.5-48.35,11.32-79.88-12.21-12.48-14.54-28.59-.13-40.95,17.14-14.73,46.54,4.35,37.73,28.2,28.6-6.87,53.89,1.66,53.79.54Z"/>
      <path class="cls-4" d="M71.26,54.8c14.24,11.04,23.09.52,26.3-11.34,7.28,10.75,6.32,28.51-9.87,29.76-15.87,1.23-16.43-18.41-16.43-18.41Z"/>
      <path class="cls-2" d="M19.44,71.45c-13.66,55.03,55.26,49.06,55.43,16.58-11.08-8.98-42.36-17.26-55.43-16.58Z"/>
      <path class="cls-1" d="M41.3,74.58c-1.3,5.7-.72,42.13,9.6,37.05,6.86-3.37,5.13-24.88,4.76-31.66-4.69-1.43-8.68-4.7-12.93-6.84"/>
      <path class="cls-2" d="M155.5,73.43c13.66,55.02-55.25,49.06-55.42,16.58,11.09-8.99,42.37-17.26,55.42-16.58Z"/>
      <path class="cls-1" d="M133.66,76.57c1.29,5.7.72,42.13-9.6,37.04-6.85-3.37-5.14-24.88-4.76-31.66,4.67-1.43,8.66-4.7,12.92-6.84"/>
      <path class="cls-6" d="M101.31,133.46c-1.35,7.91-4.39,15.22-12.62,16.82-8.77,1.72-15.28-8.67-14.74-17.49l11.52-9.7,15.84,10.37Z"/>
      <path class="cls-3" d="M101.49,132.93c-1.36,7.93-4.39,15.21-12.62,16.82-8.77,1.72-15.29-8.66-14.75-17.49"/>
      <path class="cls-3" d="M68.44,119.92c-.22,14.56,10.72,13.67,17.03,3.17,4.49,9.1,19.18,12.32,21.89,1.6"/>
      <path class="cls-3" d="M83.6,114.54c1.52,1.27,5.16.48,5.16.48"/>
    </g>
  </g>
</svg>