<?xml version="1.0" encoding="UTF-8"?>
<svg id="_レイヤー_2" data-name="レイヤー 2" xmlns="http://www.w3.org/2000/svg" xmlns:xlink="http://www.w3.org/1999/xlink" viewBox="0 0 410.73 466.82">
  <defs>
    <style>
      .cls-1, .cls-2, .cls-3 {
        fill: none;
      }

      .cls-4 {
        fill: #9eacb4;
      }

      .cls-5 {
        fill: #f9d3e3;
      }

      .cls-5, .cls-6, .cls-7, .cls-8, .cls-2, .cls-3, .cls-9, .cls-10 {
        stroke: #231815;
      }

      .cls-5, .cls-6, .cls-7, .cls-3 {
        stroke-width: 11.01px;
      }

      .cls-5, .cls-8, .cls-2, .cls-3, .cls-9, .cls-10 {
        stroke-linecap: round;
        stroke-linejoin: round;
      }

      .cls-11 {
        fill: #685a3c;
      }

      .cls-12 {
        fill: #c88185;
      }

      .cls-6 {
        fill: #5cb531;
      }

      .cls-13, .cls-8, .cls-9 {
        fill: #231815;
      }

      .cls-7 {
        fill: #fff9b1;
      }

      .cls-14 {
        clip-path: url(#clippath-1);
      }

      .cls-15 {
        clip-path: url(#clippath-3);
      }

      .cls-16 {
        clip-path: url(#clippath-4);
      }

      .cls-17 {
        clip-path: url(#clippath-2);
      }

      .cls-18 {
        clip-path: url(#clippath-5);
      }

      .cls-8 {
        stroke-width: 2.1px;
      }

      .cls-19 {
        fill: #fff;
      }

      .cls-2 {
        stroke-width: 5.51px;
      }

      .cls-20 {
        fill: #dbe7ed;
      }

      .cls-9 {
        stroke-width: 2.62px;
      }

      .cls-10 {
        fill: #fff100;
        stroke-width: 5.51px;
      }

      .cls-21 {
        clip-path: url(#clippath);
      }
    </style>
    <clipPath id="clippath">
      <path class="cls-1" d="M161.03,367.03c6.85,15.45,43.74,81.97,56.05,87.83,11.45,5.45,72.43-14.93,67.4-34.35-5.31-20.5-28.21-8.87-41.45-71.92,21.59-14.74,33.29-27.82,48.31-38.13,3.14-2.16,72.01-21,92.36-27.26,22.59-6.95,22.47-115.02-20.01-75.36-17.15,16.02-63.77,33.39-71.91,27.86-6.66-4.48-19.65-13.86-23.33-20.97,12.39-19.18,23.5-37.06,34.7-56.71,8.85-15.56,12.49-36.56,1.43-50.83-28.5-36.71-44.84-2.41-60,15.64"/>
    </clipPath>
    <clipPath id="clippath-1">
      <path class="cls-3" d="M292.68,400.26s-56.88-293.79-56.91-294.05c-1.33-7.11,6.17-26.81,21.15-31.33,26.59-8.03,35.83,8.59,36.33,11.11,0,.02,61.43,305.09,61.43,305.09l-19.57,68.37-42.42-59.19Z"/>
    </clipPath>
    <clipPath id="clippath-2">
      <path class="cls-1" d="M207.84,72.53c13.23-8.56,14.68-26.2,8.81-40.46-10.4-25.19-42.31-27.4-60.68-16.12-25.47,15.66-14.84,44.55-4.78,53.28-14.71,1.79-37.79,12.92-59.58,26.6.73-16.78-7.12-37.31-23.52-45.96-20.02-10.56-49.02,6.52-56.13,26.54-9.79,27.67,8.04,55.43,30.38,63.81-19.32,44.74-9.07,184.54,177.16,97.78,24.84-11.57,106.3-74.8,43.03-139.09-19.96-20.3-38.61-23.04-54.68-26.39"/>
    </clipPath>
    <clipPath id="clippath-3">
      <path class="cls-1" d="M63,164.18c.57,22.16,1.84,53.3,24.28,63.98,41.12,19.57,77.47-14.42,78.97-57.05-23.38-5.69-103.26-6.93-103.26-6.93Z"/>
    </clipPath>
    <clipPath id="clippath-4">
      <path class="cls-1" d="M239.84,100.93c13.36,10.08,27.33,26.21,25.34,43.77-3.08,27.15-26.23,44.02-59.52,12.99,4.2-16,34.18-56.76,34.18-56.76Z"/>
    </clipPath>
    <clipPath id="clippath-5">
      <path class="cls-2" d="M223.79,208.07c12.5,8.59-4.87,34.21-24.45,30.61-11.16-2.04-13.08-5.91-14.83-15.05,8.12-3.13,19.23-15.57,20.19-23.61,3.97,7.23,19.09,8.05,26.32-.61"/>
    </clipPath>
  </defs>
  <g id="_レイヤー_1-2" data-name="レイヤー 1">
    <g>
      <g>
        <path class="cls-4" d="M376.64,213.33c.08-5.55-5.38-19.24,9.19-17.01,14.57,2.23,23.88,26.35,19.01,47.11-4.87,20.75-2.77,42.36-26.42,41.35-23.65-1.01-11.57-5.82-8.54-18.26,3.03-12.44,6.76-53.18,6.76-53.18Z"/>
        <g>
          <g>
            <path class="cls-13" d="M157.63,359.75c4.77,3.38,7.64,5.8,8.18,9.5,2.23,15.11,43.54,78.56,54.56,83.8,5.64,2.7,38.27-6.17,54.71-19.66,5.19-4.27,7.85-8.37,7.25-11.26-1.54-7.78-4.27-9.77-9.21-13.39-8.68-6.35-20.58-15.06-32.25-54.97l-1.12-3.8,3.22-2.21c11.88-8.11,20.76-16.2,28.6-23.36,6.76-6.16,13.15-11.99,20.46-17,2.17-1.49,11.42-4.22,54.97-16.22,17.62-4.84,33.02-9.88,41.64-12.54,4.32-1.32,9.73-12.47,11.3-30.53,1.85-21.3-2.64-41.03-10.24-44.89-5.03-2.58-11.9,2.3-16.77,6.86-17.84,16.64-68.66,37.22-80.48,29.22-9.5-6.41-21.67-15.71-25.73-23.52l-1.48-2.81,1.74-2.67c14.21-22,25.2-39.95,35.58-58.18,9.34-16.36,9.67-32.85.94-44.13-7.95-10.22-15.16-15.39-21.44-15.33-8.96.08-17,10.65-24.78,20.89l-6.66,8.5-7.82-6.95,6.35-8.11c8.87-11.67,18.92-24.88,32.87-25.01,9.74-.09,19.42,6.23,29.56,19.31,4.38,5.64,7.11,12.19,8.14,19.24,1.7,11.5-1.04,24.36-8.22,36.97-9.98,17.49-20.57,34.83-33.92,55.55,3.47,4.45,8.98,7.03,18.74,13.64,6.57,2.96,50.43-11.72,67.97-28.1,13.16-12.3,22.66-11.43,28.3-8.56,8.49,4.32,15.04,19.45,17.03,32.94,1.24,8.34,1.39,17.42.62,26.03-.71,8.23-4.16,35.4-18.71,39.87-8.76,2.69-23.4,7.53-41.91,12.62-21.69,5.98-48.54,13.39-52.11,14.97-6.62,4.57-12.69,10.07-19.1,15.92-7.37,6.71-14.46,13.3-25.22,21,10.25,33.22,18.75,41.38,25.95,46.66,5.63,4.13,10.96,8.03,13.33,19.88.06.24.1.5.14.76.76,5.03-.27,14.11-10.64,22.61-16.26,13.35-52.63,29.7-68.87,21.22-13.69-7.14-53.51-72.72-57.33-92.72-.75-.9-1.95-5.15-4.46-6.92"/>
            <g class="cls-21">
              <path class="cls-4" d="M161.03,367.03c5.33,14.14,38.53,79.03,54.77,86.45,11.53,5.27,72.85-12.59,68.92-32.25-4.82-24.11-23.07-10.26-41.02-71.57,21.59-14.74,32.62-28.88,47.64-39.19,3.14-2.16,72.01-21,92.36-27.26,22.59-6.95,22.47-115.02-20.01-75.36-17.15,16.02-63.77,33.39-71.91,27.86-6.66-4.48-19.65-13.86-23.33-20.97,12.39-19.18,23.5-37.06,34.7-56.71,8.85-15.56,11.45-35.78.39-50.06-28.5-36.71-43.8-3.18-58.96,14.87"/>
              <path class="cls-19" d="M252.8,118.88c11.67-12.09,25.05-24.82,31.5-40.66-13.23-5.99-24.04,10.74-34.89,17.62"/>
              <path class="cls-19" d="M289.29,228.25c9.26,5.8,9.61,17.28,6.92,26.92,9.5-15.49,54.57-40.92,69.15-27.55-7.68-27.13,36.6-39.28,19.84-54.49-18.24-16.55-69.25,34.29-77.53,41.65"/>
            </g>
          </g>
          <g>
            <g class="cls-14">
              <path class="cls-6" d="M294.06,407.12s-58.26-300.65-58.29-300.91c-1.33-7.11,6.17-26.81,21.15-31.33,26.59-8.03,35.83,8.59,36.33,11.11,0,.02,61.67,310.32,61.67,310.32l-19.83,66.82-41.02-56.01Z"/>
              <path class="cls-19" d="M261.65,63.27l-17.12,41.3,59.74,297.66,32.46,71.13-56.89-42.48S195.64,93.11,191.69,100.94c-3.96,7.82,69.96-37.67,69.96-37.67Z"/>
              <path class="cls-7" d="M282.71,401.09c13.07,2.79,26.36,6,40.39,4.03,18.31-2.59,32.88-13.03,45.48-26.33,11.57,25.3,8.12,73.13-8.27,96.07-33.86,47.36-75.02-30.51-79.36-61.91"/>
              <path class="cls-13" d="M302.54,426.55c17.22,14.9,35.92,5.93,50.45-4.22,2.65,12.75.24,42.21-13.28,48.91-15.99,7.92-28.21-24.73-34.5-31.63"/>
              <path class="cls-11" d="M292.12,161.13c.79,3.82.87,6.68.3,8.58-.65,2.11-2.13,3.41-4.49,3.93l-7.57,1.69c-.88.2-1.71.07-2.45-.41-.75-.47-1.2-1.17-1.39-2.09l-6.65-32.57c-.2-.92-.04-1.75.43-2.52.47-.76,1.17-1.24,2.05-1.44l6.84-1.52c2.21-.49,3.92-.26,5.11.68,1.56,1.24,2.78,3.91,3.62,8.04l.35,1.65c.27,1.43.31,2.75.11,3.96-.23,1.21-.68,2.34-1.38,3.4,1.14.55,2.14,1.41,2.96,2.57.86,1.17,1.46,2.65,1.83,4.45l.33,1.62ZM282.56,146.87l-.21-1.07c-.21-1.08-.59-1.81-1.07-2.24-.49-.42-1.24-.51-2.2-.29l-2.04.45c-.42.09-.61.33-.53.72l1.35,6.69,2.22-.49c1.24-.29,2.03-.68,2.35-1.23.33-.55.37-1.39.13-2.54ZM286.29,161.76l-.21-1.05c-.3-1.44-.77-2.33-1.42-2.72-.65-.39-1.84-.38-3.53,0l-1.77.37,1.55,7.63c.09.41.35.56.79.48l2.51-.55c1.87-.42,2.57-1.81,2.1-4.16Z"/>
            </g>
            <path class="cls-3" d="M292.68,400.26s-56.88-293.79-56.91-294.05c-1.33-7.11,6.17-26.81,21.15-31.33,26.59-8.03,35.83,8.59,36.33,11.11,0,.02,61.43,305.09,61.43,305.09l-19.57,68.37-42.42-59.19Z"/>
          </g>
          <g>
            <path class="cls-13" d="M152.69,6.85c-14.23,8.74-18.88,19.45-19.56,27.9-.11,1.4-.42,4.98-.39,6.36.23,8.56,1.83,16.74,5.72,22.92-12.69,3.43-22.57,8.24-40.78,19.08-1.83-16.24-11.48-32.92-27.92-41.59-9.79-5.17-23.71-4.24-36.04.89-14.1,5.87-26.07,17.78-30.51,30.33C.91,79.18-.16,85.79.02,92.39c.19,7.18,1.82,14.36,4.88,21.31,5.67,12.9,15.98,23.36,27.98,29.31-3.83,10.95-6.3,25.25-5.9,40.67.6,22.94,7.32,47.91,24.47,66.2,22.72,24.2,71.06,43.18,172.26-3.96,19.13-8.92,63.46-42.52,70.62-84.33.77-4.54,1.11-9.06.98-13.51-.48-19.07-9.13-37.24-25.79-54.17-17.58-17.87-34.6-23.28-49.05-26.5,4.89-6.64,6.89-14.81,6.68-22.96-.15-6.17-1.54-12.29-3.76-17.69-4.73-11.46-13.53-19.68-25.47-23.78-14.24-4.88-32.65-3.88-45.24,3.87ZM204.69,74.96c-.5,2.63,3.99.86,3.99.86l3.13.63c15.21,3.12,32.45,6.63,50.67,25.17,14.68,14.91,22.27,30.67,22.7,46.97.1,3.69-.17,7.4-.82,11.14-6.55,38.37-49.72,69.44-64.7,76.42-75.92,35.36-131.59,37.5-161,6.19-25.9-27.6-25.26-75.72-14.84-99.84l2.27-5.27-5.18-1.95c-11.51-4.33-21.54-14.09-26.82-26.12-3.29-7.48-6.22-19.22-1.42-32.74,3.47-9.83,13.18-19.29,24.72-24.1,9.61-4,18.86-4.11,26.05-.32,14.94,7.88,22.12,27.28,21.47,42.36l-.43,9.86,8.06-5.06c24.07-15.11,46.25-25.09,59.34-26.68l2.68-9.42c-4.45-3.85-10.31-14.3-9.43-25.41.68-8.6,5.28-15.58,13.67-20.73,10.21-6.28,24.33-7.76,35.96-3.79,6.35,2.19,14.86,7.06,19.35,17.93,1.71,4.18,2.8,8.93,2.93,13.64.2,8.32-2.54,16.53-9.98,21.34,0,0-3.68,6.65-2.36,8.92Z"/>
            <g class="cls-17">
              <path class="cls-4" d="M207.84,72.53c13.23-8.56,14.68-26.2,8.81-40.46-10.4-25.19-42.31-27.4-60.68-16.12-25.47,15.66-14.84,44.55-4.78,53.28-14.71,1.79-37.79,12.92-59.58,26.6.73-16.78-7.12-37.31-23.52-45.96-20.02-10.56-49.02,6.52-56.13,26.54-9.79,27.67,8.04,55.43,30.38,63.81-19.32,44.74-9.07,184.54,177.16,97.78,24.84-11.57,106.3-74.8,43.03-139.09-19.96-20.3-38.61-23.04-54.68-26.39"/>
              <path class="cls-19" d="M189.7,180.26c4.81-5.24-1.82-8.34-5.91-10.15.9,5.07,3.67,10.02,6.02,14.47"/>
              <path class="cls-19" d="M162.94,4.05c-23.21,13.07-15.69,48.8-.99,64.3-14.38-1.14-27.73,3.72-41.43-.98.34-22.07,5.08-58.26,30.14-62.91"/>
              <path class="cls-19" d="M72.74,35.56C17.81,31.27-6.42,113.35,47.32,132.68c-8.17,30.99-12.29,68.77-1.79,97.37-21.94-17.67-41.42-59.39-51.89-85.98C-20.93,107.01-17.2,3.32,40.13,10.73"/>
            </g>
          </g>
          <g>
            <path class="cls-9" d="M63.11,159c3.29.04,80.68,1.33,104.34,7.07l3.99.96-.16,4.24c-.88,24.74-12.96,47.46-31.5,59.25-16.42,10.45-35.83,11.27-54.62,2.34-25.73-12.24-26.63-47.48-27.18-68.53l-.14-5.42,5.27.09Z"/>
            <g class="cls-15">
              <path class="cls-19" d="M63,164.18c.57,22.16,1.84,53.3,24.28,63.98,41.12,19.57,77.47-14.42,78.97-57.05-23.38-5.69-103.26-6.93-103.26-6.93Z"/>
              <path class="cls-20" d="M171.28,171.27c-26.3,3.47-64.03-.68-94.26.2-.47,25.39,2.54,49.16,21.91,67.96-36.7-7.86-63.14-66.61-41.04-94.29,39.07,12.7,80.02,6.29,119.37,13.93"/>
            </g>
            <path class="cls-8" d="M241.21,97.58c8.74,6.69,28.77,24.68,26.23,47.3h0c-1.69,14.89-8.87,26.48-19.21,31.04-12.76,5.6-28.77.18-45.12-15.27l-2.07-1.94.77-2.91c4.26-16.42,32.63-55.64,33.84-57.29l2.41-3.33,3.16,2.41Z"/>
            <g class="cls-16">
              <path class="cls-19" d="M237.34,101.64c12.99,9.82,26.59,25.51,24.64,42.59-3,26.44-25.53,42.86-57.94,12.66,4.11-15.59,33.29-55.25,33.29-55.25Z"/>
              <path class="cls-20" d="M241.49,92.77c-16.84,24.92-37.37,61.99-17.12,87.45-48.39,1.27-23.45-105.67,15.08-96.61"/>
            </g>
            <path class="cls-2" d="M228.31,188.47c17.54-1.86-10.47,32.76-24.83,12.5,3.18,25.81-41.37,29.51-28.51,15.21"/>
            <g>
              <g class="cls-18">
                <path class="cls-5" d="M223.79,208.07c12.5,8.59,5.62,49.5-13.97,45.91-11.16-2.05-23.57-21.21-25.31-30.35,8.12-3.13,19.23-15.57,20.19-23.61,3.97,7.23,12.29,6.93,19.03,5.46"/>
                <path class="cls-12" d="M200.23,196.32c4.95-8.42,19.84-7.33,26.16-.86,7.52,7.68,7.01,24.96,2.31,33.99,1.38-13.37-23.76-16.74-37.27-2.71l-1.08-2.38"/>
              </g>
              <path class="cls-2" d="M223.79,208.07c12.5,8.59-4.87,34.21-24.45,30.61-11.16-2.04-13.08-5.91-14.83-15.05,8.12-3.13,19.23-15.57,20.19-23.61,3.97,7.23,19.09,8.05,26.32-.61"/>
            </g>
            <path class="cls-13" d="M199.27,194.66c5.07-2.5,7.21-3.58,6.67-9.7-3.32.18-6.47,1.68-9.38,3.84-.63,3.56.79,3.97,2.71,5.86Z"/>
            <path class="cls-13" d="M146.25,223.6c-.32-11.42-.3-54.76-20.25-53.74-13.04.66-11.78,24.77-10.5,34.06,1.09,7.91,4.15,27.85,12.16,30.37,7.08,2.22,16.3-7.86,21.06-12.06"/>
            <path class="cls-13" d="M244.24,173.52c.51-9.29-5.08-63.3-19.36-44.67-7.23,9.44-4.04,36.48.49,46.21"/>
            <path class="cls-19" d="M217.98,147.05c13.23-25.04,16.44,18.11,2.89,7.05"/>
            <path class="cls-19" d="M112.82,194.91c2.78-31.59,28.5,21.5-1.05,7.8"/>
            <path class="cls-10" d="M167.38,87.41c26.62,20.33-2.08,60.28-32.76,34.61,31.07-3.85,32.76-34.61,32.76-34.61Z"/>
          </g>
          <g>
            <path class="cls-4" d="M159.13,371.93c-10.56-31.12-55.1-51.67-31.19-99.13,5.79-11.5,44.39-25.12,55.49-29.31,32.01-12.14,51.34-35.47,85.95-38.21,13.54-1.08,13.93,8.21,16.38,24.85,3.76,25.51.42,34.63-17.75,43.49"/>
            <path class="cls-19" d="M285.3,232.59c-2.33-5.78-5.89-18.75-12.46-20.32-6.28-1.5-16.01,1.89-21.92,3.96-18.17,6.42-33.97,22.75-51.56,30.1-20.82,8.69-47.71,13.97-63.11,32.03-8.45,9.91-6.48,17.07-5.47,31.93.74,10.95,14.77,31.67,17.42,41.54-14.08-10.76-25.8-29.46-27.26-46.21-3.34-38.37,25.12-47.73,56.59-59.93,21.12-8.2,36.07-23.66,57.69-30.22,14.02-4.26,22.7-12.86,37.55-9.79,10.12,2.09,6.37,4.78,11.2,12.93"/>
          </g>
        </g>
      </g>
      <path class="cls-13" d="M156.75,375.42c-3.09-9.11-14.07-24.18-22.65-34.3-13.41-15.81-27.91-35.46-13.3-67.36,6.54-14.28,31.66-22.49,57.24-32.01,1.09-.41,2.06-.77,2.88-1.08,11.92-4.52,23.46-11.25,33.43-17.32,16.1-9.79,36.14-20.59,56.28-23.76,8.1-1.28,11.43,1.02,14.79,6.88,2.66,4.64,4.22,11.93,5.34,19.79.14,1,.29,2.03.45,3.09,2.17,14.74,1.88,23.67-.99,30.84-3.05,7.62-12.18,11.24-23,16.52-6.59,3.23-15,6.88-22.53,14.02-15.04,14.27-34.12,28.02-50.67,27.95-.72,0,3.79.79,3.07.74-3.03-.24-5.3-2.88-5.06-5.92.24-3.03,2.88-5.3,5.92-5.06,12.93,1.01,29.02-11.65,43.21-22.8,8.63-6.79,19.53-14.12,27.17-17.86,14.66-7.15,17.15-13.61,13.5-38.38-.16-1.08-.31-2.12-.45-3.13-2.38-16.65-5.05-18.13-11.72-17.6-19.89,1.57-35.97,11.85-51.66,21.39-10.4,6.32-21.72,12.05-34.59,16.93-.84.32-1.82.68-2.93,1.1-6.91,2.57-18.14,7.14-28.68,12.13-16.22,7.67-20.51,14.55-21.3,16.11-6.68,13.27-7.29,25.77-3.58,37.3,3.36,10.46,12.71,20.2,19.77,29.32,7.1,9.18,15.62,23.71,19.3,34.56.98,2.88-2.2-1.33-5.08-.35-.6.2-3.37.56-4.15-1.73Z"/>
    </g>
  </g>
</svg>