<?xml version="1.0" encoding="utf-8"?>
<!-- Generator: Adobe Illustrator 27.7.0, SVG Export Plug-In . SVG Version: 6.00 Build 0)  -->
<svg version="1.1" id="_レイヤー_2" xmlns="http://www.w3.org/2000/svg" xmlns:xlink="http://www.w3.org/1999/xlink" x="0px"
	 y="0px" viewBox="0 0 413.44 91.51" style="enable-background:new 0 0 413.44 91.51;" xml:space="preserve">
<style type="text/css">
	.st0{fill:#1D2088;stroke:#1D2088;stroke-width:4;stroke-linejoin:round;stroke-miterlimit:10;}
</style>
<g id="_レイヤー_2-2">
	<path class="st0" d="M0,85.47C4.53,66.8,6.9,47.74,7.11,28.28l12.19,0.58c-0.21,19.72-2.55,39.37-7.01,58.95L0,85.47L0,85.47z
		 M15.96,11.49c12.29-5.27,22.18-7.91,29.67-7.91c6.61,0,11.83,1.66,15.64,4.97c3.02,2.86,4.56,6.32,4.64,10.34
		c-0.22,2.22-1.84,4.73-4.86,7.53c-1.87,1.75-4.92,3.77-9.17,6.05c3.67,2.8,6.51,5.86,8.53,9.18c2.87,4.8,4.42,11.21,4.63,19.22
		c-0.21,8.92-2.66,16.14-7.33,21.67c-4.53,5.15-10.75,7.77-18.66,7.91c-4.24-0.21-9.42-1.21-15.53-3.03l-1.18-10.45
		c5.9,2.29,11,3.49,15.32,3.61c4.32-0.2,7.99-1.95,11-5.27c2.8-3.18,4.21-8,4.21-14.44c-0.14-5.99-1.33-11.09-3.56-15.31
		c-1.65-3.07-3.95-5.87-6.9-8.4c-1.44,0.71-2.99,1.4-4.64,2.05l-6.58-8.29c9.28-3.19,15.28-5.73,18.02-7.62
		c2.37-1.69,3.56-3.16,3.56-4.4c-0.29-3.63-2.66-5.46-7.12-5.46c-6.12,0-14.21,2.67-24.27,8.01l-5.39-9.95h-0.03L15.96,11.49z
		 M83.92,25.92c6.47,24.66,10.39,44.44,11.75,59.35l-12.18,1.46c-2.16-20.23-6.07-39.69-11.76-58.37L83.92,25.92L83.92,25.92z
		 M80.14,5.43c2.16,2.67,4.14,5.59,5.93,8.78l-7.02,1.86c-1.37-3.06-3.09-6.08-5.17-9.07L80.14,5.43L80.14,5.43L80.14,5.43z
		 M92.33,4.26c2.16,2.54,4.14,5.33,5.93,8.39l-7.01,1.86c-1.36-2.93-3.09-5.78-5.17-8.59L92.33,4.26L92.33,4.26L92.33,4.26z"/>
	<path class="st0" d="M207.38,21.15h13.38c1.08-6.25,2.56-12.56,4.42-18.94l12.19,1.95c-1.66,5.79-3.06,11.45-4.21,16.98h46.39
		c-0.65-5.27-1.69-11.19-3.13-17.76l12.19-1.77c1.51,7.3,2.59,13.8,3.23,19.53h13.7v11.12H292.6l-0.43,6.35
		c0,9.3-2.05,16.59-6.15,21.86c-3.38,4.42-7.77,6.71-13.16,6.84c-5.39-0.26-11.68-1.4-18.87-3.42l-0.65-10.45
		c6.9,2.02,12.62,3.16,17.15,3.43c3.09-0.07,5.28-1.41,6.58-4.01c2.08-3.7,3.13-8.28,3.13-13.75l0.1-6.84h-48.96
		c-0.86,6.63-1.3,13.14-1.3,19.52c0,10.09,1.79,16.95,5.39,20.6c4.1,4.03,10.43,6.11,18.99,6.24c10.13-0.2,24.48-2.21,43.03-6.05
		l-3.24,11.61c-17.33,3.77-30.6,5.76-39.79,5.96c-12.59-0.2-21.94-3.36-28.05-9.47c-5.68-5.85-8.52-15.49-8.52-28.89
		c0-6.45,0.4-12.95,1.19-19.52h-11.65V21.15H207.38L207.38,21.15z"/>
	<path class="st0" d="M317.44,57.07c0-13.09,3.2-30.81,9.6-53.2l12.19,2.45c-6.55,18.99-9.82,35.92-9.82,50.75
		c0,7.62,1.44,13.33,4.31,17.18c2.16,3.06,5.07,4.65,8.74,4.78c2.95-0.2,5.86-1.2,8.74-3.02c3.67-2.28,7.88-6.06,12.62-11.32
		l0.97,13.26c-5.46,4.17-10.36,7.13-14.67,8.88c-3.31,1.44-6.69,2.29-10.14,2.55c-6.54-0.19-11.93-2.96-16.17-8.3
		c-4.25-5.72-6.37-13.72-6.37-24l0,0L317.44,57.07z M390.03,8.46c9.57,15.43,17.37,36.7,23.41,63.84l-11.98,2.25
		c-5.61-25.25-13.13-45.64-22.54-61.2L390.03,8.46L390.03,8.46L390.03,8.46z"/>
	<path class="st0" d="M154.42,3.43L142.75,0l-35.91,87.25l11.81,4.26l10.52-24.23c2.61-6,7.05-11.02,12.7-14.32l10.3-6.03
		c2.43-1.42,5.17-2.21,7.98-2.31l1.58-0.05c1.63-0.06,2.94,1.35,2.76,2.97l-2.64,24.43c-0.99,9.13,6.12,17.12,15.3,17.21l4.99,0.05
		l22.01-3.37l2.27-12.47c0,0-15.91,5.55-24.82,5.87c-7.96,0.28-8.24-4.6-7.25-11.1c0.99-6.51,2.76-22.91,2.76-22.91
		s-0.21-6.79-5.16-10.33c-4.95-3.54-14.73-0.85-14.73-0.85c-5.9,2.02-12.05,4.83-18.37,8.24L154.42,3.43L154.42,3.43z"/>
</g>
</svg>
